<mxfile host="app.diagrams.net" agent="Mozilla/5.0 (Windows NT 10.0; Win64; x64) AppleWebKit/537.36 (KHTML, like Gecko) Chrome/130.0.0.0 Safari/537.36" version="24.8.0">
  <diagram name="Page-1" id="m6lIEbwDlKIC5hfoYeo_">
    <mxGraphModel dx="2918" dy="984" grid="1" gridSize="10" guides="1" tooltips="1" connect="1" arrows="1" fold="1" page="1" pageScale="1" pageWidth="850" pageHeight="1100" math="0" shadow="0">
      <root>
        <mxCell id="0" />
        <mxCell id="1" parent="0" />
        <mxCell id="RYWF6PPCwVBztijRkfeJ-3" value="" style="edgeStyle=orthogonalEdgeStyle;rounded=0;orthogonalLoop=1;jettySize=auto;html=1;" parent="1" source="RYWF6PPCwVBztijRkfeJ-12" target="RYWF6PPCwVBztijRkfeJ-2" edge="1">
          <mxGeometry relative="1" as="geometry" />
        </mxCell>
        <mxCell id="RYWF6PPCwVBztijRkfeJ-1" value="Start" style="ellipse;whiteSpace=wrap;html=1;" parent="1" vertex="1">
          <mxGeometry x="340" y="170" width="120" height="80" as="geometry" />
        </mxCell>
        <mxCell id="RYWF6PPCwVBztijRkfeJ-5" value="" style="edgeStyle=orthogonalEdgeStyle;rounded=0;orthogonalLoop=1;jettySize=auto;html=1;" parent="1" source="RYWF6PPCwVBztijRkfeJ-2" target="RYWF6PPCwVBztijRkfeJ-4" edge="1">
          <mxGeometry relative="1" as="geometry" />
        </mxCell>
        <mxCell id="RYWF6PPCwVBztijRkfeJ-2" value="Input choice :" style="shape=parallelogram;perimeter=parallelogramPerimeter;whiteSpace=wrap;html=1;fixedSize=1;" parent="1" vertex="1">
          <mxGeometry x="340" y="480" width="120" height="60" as="geometry" />
        </mxCell>
        <mxCell id="RYWF6PPCwVBztijRkfeJ-17" value="" style="edgeStyle=orthogonalEdgeStyle;rounded=0;orthogonalLoop=1;jettySize=auto;html=1;" parent="1" source="RYWF6PPCwVBztijRkfeJ-4" target="RYWF6PPCwVBztijRkfeJ-16" edge="1">
          <mxGeometry relative="1" as="geometry" />
        </mxCell>
        <mxCell id="RYWF6PPCwVBztijRkfeJ-31" value="yes" style="edgeLabel;html=1;align=center;verticalAlign=middle;resizable=0;points=[];" parent="RYWF6PPCwVBztijRkfeJ-17" vertex="1" connectable="0">
          <mxGeometry x="-0.1778" y="-2" relative="1" as="geometry">
            <mxPoint as="offset" />
          </mxGeometry>
        </mxCell>
        <mxCell id="RYWF6PPCwVBztijRkfeJ-19" value="" style="edgeStyle=orthogonalEdgeStyle;rounded=0;orthogonalLoop=1;jettySize=auto;html=1;" parent="1" source="RYWF6PPCwVBztijRkfeJ-4" target="RYWF6PPCwVBztijRkfeJ-18" edge="1">
          <mxGeometry relative="1" as="geometry" />
        </mxCell>
        <mxCell id="RYWF6PPCwVBztijRkfeJ-30" value="no" style="edgeLabel;html=1;align=center;verticalAlign=middle;resizable=0;points=[];" parent="RYWF6PPCwVBztijRkfeJ-19" vertex="1" connectable="0">
          <mxGeometry x="-0.125" y="1" relative="1" as="geometry">
            <mxPoint as="offset" />
          </mxGeometry>
        </mxCell>
        <mxCell id="RYWF6PPCwVBztijRkfeJ-4" value="choice 1" style="rhombus;whiteSpace=wrap;html=1;" parent="1" vertex="1">
          <mxGeometry x="360" y="570" width="80" height="80" as="geometry" />
        </mxCell>
        <mxCell id="RYWF6PPCwVBztijRkfeJ-13" value="" style="edgeStyle=orthogonalEdgeStyle;rounded=0;orthogonalLoop=1;jettySize=auto;html=1;" parent="1" source="RYWF6PPCwVBztijRkfeJ-1" target="RYWF6PPCwVBztijRkfeJ-12" edge="1">
          <mxGeometry relative="1" as="geometry">
            <mxPoint x="400" y="250" as="sourcePoint" />
            <mxPoint x="400" y="340" as="targetPoint" />
          </mxGeometry>
        </mxCell>
        <mxCell id="RYWF6PPCwVBztijRkfeJ-12" value="Output :&lt;div&gt;Program Turnamen MLBB&amp;nbsp;&lt;/div&gt;&lt;div&gt;1. Register&lt;/div&gt;&lt;div&gt;2. Login&lt;/div&gt;&lt;div&gt;3. Keluar&lt;/div&gt;" style="shape=parallelogram;html=1;strokeWidth=2;perimeter=parallelogramPerimeter;whiteSpace=wrap;rounded=1;arcSize=12;size=0.23;" parent="1" vertex="1">
          <mxGeometry x="270" y="330" width="260" height="100" as="geometry" />
        </mxCell>
        <mxCell id="bUcDFf3ubNVlGC_Wf3Vl-2" value="" style="edgeStyle=orthogonalEdgeStyle;rounded=0;orthogonalLoop=1;jettySize=auto;html=1;" edge="1" parent="1" source="RYWF6PPCwVBztijRkfeJ-16" target="bUcDFf3ubNVlGC_Wf3Vl-1">
          <mxGeometry relative="1" as="geometry" />
        </mxCell>
        <mxCell id="RYWF6PPCwVBztijRkfeJ-16" value="input username&amp;nbsp;&lt;div&gt;input password&lt;/div&gt;&lt;div&gt;input role (admin/pendaftar):&lt;/div&gt;" style="shape=parallelogram;perimeter=parallelogramPerimeter;whiteSpace=wrap;html=1;fixedSize=1;" parent="1" vertex="1">
          <mxGeometry x="200" y="710" width="180" height="80" as="geometry" />
        </mxCell>
        <mxCell id="RYWF6PPCwVBztijRkfeJ-21" value="" style="edgeStyle=orthogonalEdgeStyle;rounded=0;orthogonalLoop=1;jettySize=auto;html=1;" parent="1" source="RYWF6PPCwVBztijRkfeJ-18" target="RYWF6PPCwVBztijRkfeJ-20" edge="1">
          <mxGeometry relative="1" as="geometry" />
        </mxCell>
        <mxCell id="RYWF6PPCwVBztijRkfeJ-32" value="no" style="edgeLabel;html=1;align=center;verticalAlign=middle;resizable=0;points=[];" parent="RYWF6PPCwVBztijRkfeJ-21" vertex="1" connectable="0">
          <mxGeometry x="-0.35" y="2" relative="1" as="geometry">
            <mxPoint as="offset" />
          </mxGeometry>
        </mxCell>
        <mxCell id="RYWF6PPCwVBztijRkfeJ-25" value="" style="edgeStyle=orthogonalEdgeStyle;rounded=0;orthogonalLoop=1;jettySize=auto;html=1;" parent="1" source="RYWF6PPCwVBztijRkfeJ-18" target="RYWF6PPCwVBztijRkfeJ-24" edge="1">
          <mxGeometry relative="1" as="geometry" />
        </mxCell>
        <mxCell id="RYWF6PPCwVBztijRkfeJ-33" value="yes" style="edgeLabel;html=1;align=center;verticalAlign=middle;resizable=0;points=[];" parent="RYWF6PPCwVBztijRkfeJ-25" vertex="1" connectable="0">
          <mxGeometry x="-0.2222" y="-3" relative="1" as="geometry">
            <mxPoint as="offset" />
          </mxGeometry>
        </mxCell>
        <mxCell id="RYWF6PPCwVBztijRkfeJ-18" value="choice 2" style="rhombus;whiteSpace=wrap;html=1;" parent="1" vertex="1">
          <mxGeometry x="520" y="570" width="80" height="80" as="geometry" />
        </mxCell>
        <mxCell id="RYWF6PPCwVBztijRkfeJ-23" value="" style="edgeStyle=orthogonalEdgeStyle;rounded=0;orthogonalLoop=1;jettySize=auto;html=1;" parent="1" source="RYWF6PPCwVBztijRkfeJ-20" edge="1">
          <mxGeometry relative="1" as="geometry">
            <mxPoint x="840" y="610" as="targetPoint" />
          </mxGeometry>
        </mxCell>
        <mxCell id="RYWF6PPCwVBztijRkfeJ-270" value="no" style="edgeLabel;html=1;align=center;verticalAlign=middle;resizable=0;points=[];" parent="RYWF6PPCwVBztijRkfeJ-23" vertex="1" connectable="0">
          <mxGeometry x="0.3557" y="-4" relative="1" as="geometry">
            <mxPoint x="-15" as="offset" />
          </mxGeometry>
        </mxCell>
        <mxCell id="RYWF6PPCwVBztijRkfeJ-27" value="" style="edgeStyle=orthogonalEdgeStyle;rounded=0;orthogonalLoop=1;jettySize=auto;html=1;" parent="1" source="RYWF6PPCwVBztijRkfeJ-20" target="RYWF6PPCwVBztijRkfeJ-26" edge="1">
          <mxGeometry relative="1" as="geometry" />
        </mxCell>
        <mxCell id="RYWF6PPCwVBztijRkfeJ-34" value="yes" style="edgeLabel;html=1;align=center;verticalAlign=middle;resizable=0;points=[];" parent="RYWF6PPCwVBztijRkfeJ-27" vertex="1" connectable="0">
          <mxGeometry x="-0.2" relative="1" as="geometry">
            <mxPoint as="offset" />
          </mxGeometry>
        </mxCell>
        <mxCell id="RYWF6PPCwVBztijRkfeJ-20" value="choice 3" style="rhombus;whiteSpace=wrap;html=1;" parent="1" vertex="1">
          <mxGeometry x="680" y="570" width="80" height="80" as="geometry" />
        </mxCell>
        <mxCell id="RYWF6PPCwVBztijRkfeJ-29" value="" style="edgeStyle=orthogonalEdgeStyle;rounded=0;orthogonalLoop=1;jettySize=auto;html=1;" parent="1" target="RYWF6PPCwVBztijRkfeJ-28" edge="1">
          <mxGeometry relative="1" as="geometry">
            <mxPoint x="880" y="570" as="sourcePoint" />
          </mxGeometry>
        </mxCell>
        <mxCell id="RYWF6PPCwVBztijRkfeJ-61" value="" style="edgeStyle=orthogonalEdgeStyle;rounded=0;orthogonalLoop=1;jettySize=auto;html=1;" parent="1" source="RYWF6PPCwVBztijRkfeJ-24" target="RYWF6PPCwVBztijRkfeJ-60" edge="1">
          <mxGeometry relative="1" as="geometry" />
        </mxCell>
        <mxCell id="RYWF6PPCwVBztijRkfeJ-24" value="input username&lt;div&gt;input password&lt;/div&gt;" style="shape=parallelogram;perimeter=parallelogramPerimeter;whiteSpace=wrap;html=1;fixedSize=1;" parent="1" vertex="1">
          <mxGeometry x="500" y="820" width="120" height="60" as="geometry" />
        </mxCell>
        <mxCell id="RYWF6PPCwVBztijRkfeJ-242" value="" style="edgeStyle=orthogonalEdgeStyle;rounded=0;orthogonalLoop=1;jettySize=auto;html=1;" parent="1" source="RYWF6PPCwVBztijRkfeJ-26" target="RYWF6PPCwVBztijRkfeJ-241" edge="1">
          <mxGeometry relative="1" as="geometry" />
        </mxCell>
        <mxCell id="RYWF6PPCwVBztijRkfeJ-26" value="Output&lt;div&gt;Terimakasih Telah Berpartisipasi dalam Tur MLBB IT&#39;24&lt;/div&gt;" style="shape=parallelogram;perimeter=parallelogramPerimeter;whiteSpace=wrap;html=1;fixedSize=1;" parent="1" vertex="1">
          <mxGeometry x="645" y="820" width="150" height="90" as="geometry" />
        </mxCell>
        <mxCell id="RYWF6PPCwVBztijRkfeJ-37" style="edgeStyle=orthogonalEdgeStyle;rounded=0;orthogonalLoop=1;jettySize=auto;html=1;" parent="1" source="RYWF6PPCwVBztijRkfeJ-28" target="RYWF6PPCwVBztijRkfeJ-12" edge="1">
          <mxGeometry relative="1" as="geometry">
            <Array as="points">
              <mxPoint x="880" y="380" />
            </Array>
          </mxGeometry>
        </mxCell>
        <mxCell id="RYWF6PPCwVBztijRkfeJ-28" value="Output :&lt;div&gt;Pilihan tidak valid&lt;/div&gt;" style="shape=parallelogram;perimeter=parallelogramPerimeter;whiteSpace=wrap;html=1;fixedSize=1;" parent="1" vertex="1">
          <mxGeometry x="830" y="580" width="120" height="60" as="geometry" />
        </mxCell>
        <mxCell id="RYWF6PPCwVBztijRkfeJ-44" value="" style="edgeStyle=orthogonalEdgeStyle;rounded=0;orthogonalLoop=1;jettySize=auto;html=1;" parent="1" source="RYWF6PPCwVBztijRkfeJ-41" target="RYWF6PPCwVBztijRkfeJ-43" edge="1">
          <mxGeometry relative="1" as="geometry" />
        </mxCell>
        <mxCell id="RYWF6PPCwVBztijRkfeJ-47" value="yes" style="edgeLabel;html=1;align=center;verticalAlign=middle;resizable=0;points=[];" parent="RYWF6PPCwVBztijRkfeJ-44" vertex="1" connectable="0">
          <mxGeometry x="0.0222" relative="1" as="geometry">
            <mxPoint as="offset" />
          </mxGeometry>
        </mxCell>
        <mxCell id="RYWF6PPCwVBztijRkfeJ-41" value="role admin" style="rhombus;whiteSpace=wrap;html=1;" parent="1" vertex="1">
          <mxGeometry x="120" y="830" width="80" height="80" as="geometry" />
        </mxCell>
        <mxCell id="RYWF6PPCwVBztijRkfeJ-266" style="edgeStyle=orthogonalEdgeStyle;rounded=0;orthogonalLoop=1;jettySize=auto;html=1;" parent="1" source="RYWF6PPCwVBztijRkfeJ-43" edge="1">
          <mxGeometry relative="1" as="geometry">
            <mxPoint x="-390" y="1020" as="targetPoint" />
          </mxGeometry>
        </mxCell>
        <mxCell id="RYWF6PPCwVBztijRkfeJ-43" value="akun admin" style="whiteSpace=wrap;html=1;" parent="1" vertex="1">
          <mxGeometry x="100" y="990" width="120" height="60" as="geometry" />
        </mxCell>
        <mxCell id="RYWF6PPCwVBztijRkfeJ-50" value="" style="edgeStyle=orthogonalEdgeStyle;rounded=0;orthogonalLoop=1;jettySize=auto;html=1;" parent="1" source="RYWF6PPCwVBztijRkfeJ-41" target="RYWF6PPCwVBztijRkfeJ-49" edge="1">
          <mxGeometry relative="1" as="geometry">
            <mxPoint x="330" y="910" as="sourcePoint" />
            <mxPoint x="360" y="990" as="targetPoint" />
          </mxGeometry>
        </mxCell>
        <mxCell id="RYWF6PPCwVBztijRkfeJ-51" value="no" style="edgeLabel;html=1;align=center;verticalAlign=middle;resizable=0;points=[];" parent="RYWF6PPCwVBztijRkfeJ-50" vertex="1" connectable="0">
          <mxGeometry x="-0.5333" relative="1" as="geometry">
            <mxPoint as="offset" />
          </mxGeometry>
        </mxCell>
        <mxCell id="RYWF6PPCwVBztijRkfeJ-53" value="" style="edgeStyle=orthogonalEdgeStyle;rounded=0;orthogonalLoop=1;jettySize=auto;html=1;" parent="1" source="RYWF6PPCwVBztijRkfeJ-49" target="RYWF6PPCwVBztijRkfeJ-52" edge="1">
          <mxGeometry relative="1" as="geometry" />
        </mxCell>
        <mxCell id="RYWF6PPCwVBztijRkfeJ-59" value="no" style="edgeLabel;html=1;align=center;verticalAlign=middle;resizable=0;points=[];" parent="RYWF6PPCwVBztijRkfeJ-53" vertex="1" connectable="0">
          <mxGeometry x="0.2533" y="-2" relative="1" as="geometry">
            <mxPoint x="-5" y="-2" as="offset" />
          </mxGeometry>
        </mxCell>
        <mxCell id="RYWF6PPCwVBztijRkfeJ-57" value="" style="edgeStyle=orthogonalEdgeStyle;rounded=0;orthogonalLoop=1;jettySize=auto;html=1;" parent="1" source="RYWF6PPCwVBztijRkfeJ-49" target="RYWF6PPCwVBztijRkfeJ-56" edge="1">
          <mxGeometry relative="1" as="geometry" />
        </mxCell>
        <mxCell id="RYWF6PPCwVBztijRkfeJ-58" value="yes" style="edgeLabel;html=1;align=center;verticalAlign=middle;resizable=0;points=[];" parent="RYWF6PPCwVBztijRkfeJ-57" vertex="1" connectable="0">
          <mxGeometry x="0.1048" y="-1" relative="1" as="geometry">
            <mxPoint x="1" y="-9" as="offset" />
          </mxGeometry>
        </mxCell>
        <mxCell id="RYWF6PPCwVBztijRkfeJ-49" value="role pendaftar" style="strokeWidth=2;html=1;shape=mxgraph.flowchart.decision;whiteSpace=wrap;" parent="1" vertex="1">
          <mxGeometry x="240" y="820" width="100" height="100" as="geometry" />
        </mxCell>
        <mxCell id="RYWF6PPCwVBztijRkfeJ-55" style="edgeStyle=orthogonalEdgeStyle;rounded=0;orthogonalLoop=1;jettySize=auto;html=1;" parent="1" source="RYWF6PPCwVBztijRkfeJ-52" target="RYWF6PPCwVBztijRkfeJ-16" edge="1">
          <mxGeometry relative="1" as="geometry">
            <Array as="points">
              <mxPoint x="420" y="740" />
            </Array>
          </mxGeometry>
        </mxCell>
        <mxCell id="RYWF6PPCwVBztijRkfeJ-52" value="input tidak valid" style="strokeWidth=2;html=1;shape=mxgraph.flowchart.decision;whiteSpace=wrap;" parent="1" vertex="1">
          <mxGeometry x="380" y="820" width="100" height="100" as="geometry" />
        </mxCell>
        <mxCell id="RYWF6PPCwVBztijRkfeJ-269" style="edgeStyle=orthogonalEdgeStyle;rounded=0;orthogonalLoop=1;jettySize=auto;html=1;" parent="1" source="RYWF6PPCwVBztijRkfeJ-56" edge="1">
          <mxGeometry relative="1" as="geometry">
            <mxPoint x="-390" y="1070" as="targetPoint" />
            <Array as="points">
              <mxPoint x="290" y="1070" />
            </Array>
          </mxGeometry>
        </mxCell>
        <mxCell id="RYWF6PPCwVBztijRkfeJ-56" value="akun pendaftar" style="whiteSpace=wrap;html=1;strokeWidth=2;" parent="1" vertex="1">
          <mxGeometry x="230" y="990" width="120" height="60" as="geometry" />
        </mxCell>
        <mxCell id="RYWF6PPCwVBztijRkfeJ-63" value="" style="edgeStyle=orthogonalEdgeStyle;rounded=0;orthogonalLoop=1;jettySize=auto;html=1;" parent="1" source="RYWF6PPCwVBztijRkfeJ-60" target="RYWF6PPCwVBztijRkfeJ-62" edge="1">
          <mxGeometry relative="1" as="geometry" />
        </mxCell>
        <mxCell id="RYWF6PPCwVBztijRkfeJ-66" value="yes" style="edgeLabel;html=1;align=center;verticalAlign=middle;resizable=0;points=[];" parent="RYWF6PPCwVBztijRkfeJ-63" vertex="1" connectable="0">
          <mxGeometry x="-0.2444" y="2" relative="1" as="geometry">
            <mxPoint as="offset" />
          </mxGeometry>
        </mxCell>
        <mxCell id="RYWF6PPCwVBztijRkfeJ-65" value="" style="edgeStyle=orthogonalEdgeStyle;rounded=0;orthogonalLoop=1;jettySize=auto;html=1;" parent="1" source="RYWF6PPCwVBztijRkfeJ-60" target="RYWF6PPCwVBztijRkfeJ-64" edge="1">
          <mxGeometry relative="1" as="geometry" />
        </mxCell>
        <mxCell id="RYWF6PPCwVBztijRkfeJ-72" value="no" style="edgeLabel;html=1;align=center;verticalAlign=middle;resizable=0;points=[];" parent="RYWF6PPCwVBztijRkfeJ-65" vertex="1" connectable="0">
          <mxGeometry x="-0.0667" y="-2" relative="1" as="geometry">
            <mxPoint as="offset" />
          </mxGeometry>
        </mxCell>
        <mxCell id="RYWF6PPCwVBztijRkfeJ-60" value="akun pendaftar" style="rhombus;whiteSpace=wrap;html=1;" parent="1" vertex="1">
          <mxGeometry x="520" y="1070" width="80" height="80" as="geometry" />
        </mxCell>
        <mxCell id="RYWF6PPCwVBztijRkfeJ-85" value="" style="edgeStyle=orthogonalEdgeStyle;rounded=0;orthogonalLoop=1;jettySize=auto;html=1;" parent="1" source="RYWF6PPCwVBztijRkfeJ-62" target="RYWF6PPCwVBztijRkfeJ-84" edge="1">
          <mxGeometry relative="1" as="geometry" />
        </mxCell>
        <mxCell id="RYWF6PPCwVBztijRkfeJ-62" value="Output :&lt;div&gt;Menu Pendaftar&lt;div&gt;1. Daftar Turnamen&lt;/div&gt;&lt;div&gt;2. Lihat Status Daftar Saya&lt;/div&gt;&lt;div&gt;3. Log Out&lt;/div&gt;&lt;/div&gt;" style="shape=parallelogram;perimeter=parallelogramPerimeter;whiteSpace=wrap;html=1;fixedSize=1;" parent="1" vertex="1">
          <mxGeometry x="270" y="1210" width="140" height="100" as="geometry" />
        </mxCell>
        <mxCell id="RYWF6PPCwVBztijRkfeJ-78" value="" style="edgeStyle=orthogonalEdgeStyle;rounded=0;orthogonalLoop=1;jettySize=auto;html=1;" parent="1" source="RYWF6PPCwVBztijRkfeJ-64" target="RYWF6PPCwVBztijRkfeJ-77" edge="1">
          <mxGeometry relative="1" as="geometry" />
        </mxCell>
        <mxCell id="RYWF6PPCwVBztijRkfeJ-88" value="yes" style="edgeLabel;html=1;align=center;verticalAlign=middle;resizable=0;points=[];" parent="RYWF6PPCwVBztijRkfeJ-78" vertex="1" connectable="0">
          <mxGeometry x="-0.0222" y="-2" relative="1" as="geometry">
            <mxPoint y="-1" as="offset" />
          </mxGeometry>
        </mxCell>
        <mxCell id="RYWF6PPCwVBztijRkfeJ-64" value="akun admin" style="rhombus;whiteSpace=wrap;html=1;" parent="1" vertex="1">
          <mxGeometry x="690" y="1070" width="80" height="80" as="geometry" />
        </mxCell>
        <mxCell id="RYWF6PPCwVBztijRkfeJ-75" value="" style="edgeStyle=orthogonalEdgeStyle;rounded=0;orthogonalLoop=1;jettySize=auto;html=1;" parent="1" source="RYWF6PPCwVBztijRkfeJ-64" target="RYWF6PPCwVBztijRkfeJ-76" edge="1">
          <mxGeometry relative="1" as="geometry">
            <mxPoint x="770" y="1110" as="sourcePoint" />
            <mxPoint x="830" y="1110" as="targetPoint" />
          </mxGeometry>
        </mxCell>
        <mxCell id="RYWF6PPCwVBztijRkfeJ-89" value="no" style="edgeLabel;html=1;align=center;verticalAlign=middle;resizable=0;points=[];" parent="RYWF6PPCwVBztijRkfeJ-75" vertex="1" connectable="0">
          <mxGeometry x="-0.0984" y="-5" relative="1" as="geometry">
            <mxPoint as="offset" />
          </mxGeometry>
        </mxCell>
        <mxCell id="RYWF6PPCwVBztijRkfeJ-83" style="edgeStyle=orthogonalEdgeStyle;rounded=0;orthogonalLoop=1;jettySize=auto;html=1;" parent="1" source="RYWF6PPCwVBztijRkfeJ-76" edge="1">
          <mxGeometry relative="1" as="geometry">
            <mxPoint x="830" y="380" as="targetPoint" />
            <Array as="points">
              <mxPoint x="1020" y="380" />
            </Array>
          </mxGeometry>
        </mxCell>
        <mxCell id="RYWF6PPCwVBztijRkfeJ-76" value="&amp;nbsp;Output :&lt;div&gt;Akun tidak ditemukan,&amp;nbsp;&lt;/div&gt;&lt;div&gt;silahkan register&amp;nbsp;&lt;/div&gt;&lt;div&gt;atau login ke akun&amp;nbsp;&lt;/div&gt;&lt;div&gt;yang sudah ada&lt;/div&gt;" style="shape=parallelogram;html=1;strokeWidth=2;perimeter=parallelogramPerimeter;whiteSpace=wrap;rounded=1;arcSize=12;size=0.23;" parent="1" vertex="1">
          <mxGeometry x="910" y="1070" width="210" height="80" as="geometry" />
        </mxCell>
        <mxCell id="RYWF6PPCwVBztijRkfeJ-87" value="" style="edgeStyle=orthogonalEdgeStyle;rounded=0;orthogonalLoop=1;jettySize=auto;html=1;" parent="1" source="RYWF6PPCwVBztijRkfeJ-77" target="RYWF6PPCwVBztijRkfeJ-86" edge="1">
          <mxGeometry relative="1" as="geometry">
            <Array as="points">
              <mxPoint x="720" y="1510" />
              <mxPoint x="720" y="1510" />
            </Array>
          </mxGeometry>
        </mxCell>
        <mxCell id="RYWF6PPCwVBztijRkfeJ-77" value="Output :&lt;div&gt;Menu Admin&lt;/div&gt;&lt;div&gt;1. Lihat Pendaftar&lt;/div&gt;&lt;div&gt;2. Tambah Pendaftar&lt;/div&gt;&lt;div&gt;3. Ubah Pendaftar&lt;/div&gt;&lt;div&gt;4. Hapus Pendaftar&lt;/div&gt;&lt;div&gt;5. Log Out&lt;/div&gt;" style="shape=parallelogram;perimeter=parallelogramPerimeter;whiteSpace=wrap;html=1;fixedSize=1;" parent="1" vertex="1">
          <mxGeometry x="660" y="1340" width="140" height="110" as="geometry" />
        </mxCell>
        <mxCell id="RYWF6PPCwVBztijRkfeJ-91" value="" style="edgeStyle=orthogonalEdgeStyle;rounded=0;orthogonalLoop=1;jettySize=auto;html=1;" parent="1" source="RYWF6PPCwVBztijRkfeJ-84" target="RYWF6PPCwVBztijRkfeJ-90" edge="1">
          <mxGeometry relative="1" as="geometry" />
        </mxCell>
        <mxCell id="RYWF6PPCwVBztijRkfeJ-84" value="Input&amp;nbsp;&lt;div&gt;pendaftar_choice&lt;/div&gt;" style="shape=parallelogram;perimeter=parallelogramPerimeter;whiteSpace=wrap;html=1;fixedSize=1;" parent="1" vertex="1">
          <mxGeometry x="280" y="1350" width="120" height="60" as="geometry" />
        </mxCell>
        <mxCell id="RYWF6PPCwVBztijRkfeJ-163" value="" style="edgeStyle=orthogonalEdgeStyle;rounded=0;orthogonalLoop=1;jettySize=auto;html=1;" parent="1" source="RYWF6PPCwVBztijRkfeJ-86" target="RYWF6PPCwVBztijRkfeJ-162" edge="1">
          <mxGeometry relative="1" as="geometry">
            <Array as="points">
              <mxPoint x="715" y="1670" />
              <mxPoint x="715" y="1670" />
            </Array>
          </mxGeometry>
        </mxCell>
        <mxCell id="RYWF6PPCwVBztijRkfeJ-86" value="input&lt;div&gt;admin_choice&lt;/div&gt;" style="shape=parallelogram;perimeter=parallelogramPerimeter;whiteSpace=wrap;html=1;fixedSize=1;" parent="1" vertex="1">
          <mxGeometry x="670" y="1550" width="120" height="60" as="geometry" />
        </mxCell>
        <mxCell id="RYWF6PPCwVBztijRkfeJ-100" value="" style="edgeStyle=orthogonalEdgeStyle;rounded=0;orthogonalLoop=1;jettySize=auto;html=1;" parent="1" source="RYWF6PPCwVBztijRkfeJ-90" target="RYWF6PPCwVBztijRkfeJ-99" edge="1">
          <mxGeometry relative="1" as="geometry" />
        </mxCell>
        <mxCell id="RYWF6PPCwVBztijRkfeJ-148" value="no" style="edgeLabel;html=1;align=center;verticalAlign=middle;resizable=0;points=[];" parent="RYWF6PPCwVBztijRkfeJ-100" vertex="1" connectable="0">
          <mxGeometry x="-0.3244" y="2" relative="1" as="geometry">
            <mxPoint as="offset" />
          </mxGeometry>
        </mxCell>
        <mxCell id="RYWF6PPCwVBztijRkfeJ-134" value="" style="edgeStyle=orthogonalEdgeStyle;rounded=0;orthogonalLoop=1;jettySize=auto;html=1;" parent="1" source="RYWF6PPCwVBztijRkfeJ-90" target="RYWF6PPCwVBztijRkfeJ-125" edge="1">
          <mxGeometry relative="1" as="geometry" />
        </mxCell>
        <mxCell id="RYWF6PPCwVBztijRkfeJ-147" value="yes" style="edgeLabel;html=1;align=center;verticalAlign=middle;resizable=0;points=[];" parent="RYWF6PPCwVBztijRkfeJ-134" vertex="1" connectable="0">
          <mxGeometry x="-0.3217" y="2" relative="1" as="geometry">
            <mxPoint as="offset" />
          </mxGeometry>
        </mxCell>
        <mxCell id="RYWF6PPCwVBztijRkfeJ-90" value="pendaftar_choice =1" style="rhombus;whiteSpace=wrap;html=1;" parent="1" vertex="1">
          <mxGeometry x="-170" y="1460" width="130" height="120" as="geometry" />
        </mxCell>
        <mxCell id="RYWF6PPCwVBztijRkfeJ-102" value="" style="edgeStyle=orthogonalEdgeStyle;rounded=0;orthogonalLoop=1;jettySize=auto;html=1;" parent="1" source="RYWF6PPCwVBztijRkfeJ-99" target="RYWF6PPCwVBztijRkfeJ-101" edge="1">
          <mxGeometry relative="1" as="geometry" />
        </mxCell>
        <mxCell id="RYWF6PPCwVBztijRkfeJ-150" value="no" style="edgeLabel;html=1;align=center;verticalAlign=middle;resizable=0;points=[];" parent="RYWF6PPCwVBztijRkfeJ-102" vertex="1" connectable="0">
          <mxGeometry x="-0.2752" y="-2" relative="1" as="geometry">
            <mxPoint as="offset" />
          </mxGeometry>
        </mxCell>
        <mxCell id="RYWF6PPCwVBztijRkfeJ-142" value="" style="edgeStyle=orthogonalEdgeStyle;rounded=0;orthogonalLoop=1;jettySize=auto;html=1;" parent="1" source="RYWF6PPCwVBztijRkfeJ-99" target="RYWF6PPCwVBztijRkfeJ-141" edge="1">
          <mxGeometry relative="1" as="geometry" />
        </mxCell>
        <mxCell id="RYWF6PPCwVBztijRkfeJ-149" value="yes" style="edgeLabel;html=1;align=center;verticalAlign=middle;resizable=0;points=[];" parent="RYWF6PPCwVBztijRkfeJ-142" vertex="1" connectable="0">
          <mxGeometry x="0.0506" y="4" relative="1" as="geometry">
            <mxPoint as="offset" />
          </mxGeometry>
        </mxCell>
        <mxCell id="RYWF6PPCwVBztijRkfeJ-99" value="pendaftar_choice =2" style="rhombus;whiteSpace=wrap;html=1;" parent="1" vertex="1">
          <mxGeometry x="10" y="1460" width="130" height="120" as="geometry" />
        </mxCell>
        <mxCell id="RYWF6PPCwVBztijRkfeJ-154" style="edgeStyle=orthogonalEdgeStyle;rounded=0;orthogonalLoop=1;jettySize=auto;html=1;exitX=0.5;exitY=1;exitDx=0;exitDy=0;" parent="1" source="RYWF6PPCwVBztijRkfeJ-101" target="RYWF6PPCwVBztijRkfeJ-12" edge="1">
          <mxGeometry relative="1" as="geometry">
            <mxPoint x="350.0000000000001" y="380" as="targetPoint" />
            <mxPoint x="320.1" y="1580" as="sourcePoint" />
            <Array as="points">
              <mxPoint x="325" y="2100" />
              <mxPoint x="-390" y="2100" />
              <mxPoint x="-390" y="380" />
            </Array>
          </mxGeometry>
        </mxCell>
        <mxCell id="RYWF6PPCwVBztijRkfeJ-157" value="yes" style="edgeLabel;html=1;align=center;verticalAlign=middle;resizable=0;points=[];" parent="RYWF6PPCwVBztijRkfeJ-154" vertex="1" connectable="0">
          <mxGeometry x="-0.8289" y="4" relative="1" as="geometry">
            <mxPoint y="-282" as="offset" />
          </mxGeometry>
        </mxCell>
        <mxCell id="RYWF6PPCwVBztijRkfeJ-159" value="" style="edgeStyle=orthogonalEdgeStyle;rounded=0;orthogonalLoop=1;jettySize=auto;html=1;" parent="1" source="RYWF6PPCwVBztijRkfeJ-101" target="RYWF6PPCwVBztijRkfeJ-158" edge="1">
          <mxGeometry relative="1" as="geometry" />
        </mxCell>
        <mxCell id="RYWF6PPCwVBztijRkfeJ-161" value="no" style="edgeLabel;html=1;align=center;verticalAlign=middle;resizable=0;points=[];" parent="RYWF6PPCwVBztijRkfeJ-159" vertex="1" connectable="0">
          <mxGeometry x="-0.1407" y="-1" relative="1" as="geometry">
            <mxPoint x="1" as="offset" />
          </mxGeometry>
        </mxCell>
        <mxCell id="RYWF6PPCwVBztijRkfeJ-101" value="pendaftar_choice =3" style="rhombus;whiteSpace=wrap;html=1;" parent="1" vertex="1">
          <mxGeometry x="260" y="1460" width="130" height="120" as="geometry" />
        </mxCell>
        <mxCell id="RYWF6PPCwVBztijRkfeJ-133" value="" style="edgeStyle=orthogonalEdgeStyle;rounded=0;orthogonalLoop=1;jettySize=auto;html=1;" parent="1" source="RYWF6PPCwVBztijRkfeJ-125" target="RYWF6PPCwVBztijRkfeJ-132" edge="1">
          <mxGeometry relative="1" as="geometry" />
        </mxCell>
        <mxCell id="RYWF6PPCwVBztijRkfeJ-125" value="Input nama&lt;div&gt;input usia&lt;/div&gt;&lt;div&gt;input rank&amp;nbsp;&lt;/div&gt;" style="shape=parallelogram;perimeter=parallelogramPerimeter;whiteSpace=wrap;html=1;fixedSize=1;" parent="1" vertex="1">
          <mxGeometry x="-165" y="1650" width="120" height="60" as="geometry" />
        </mxCell>
        <mxCell id="RYWF6PPCwVBztijRkfeJ-252" style="edgeStyle=orthogonalEdgeStyle;rounded=0;orthogonalLoop=1;jettySize=auto;html=1;entryX=0;entryY=0.5;entryDx=0;entryDy=0;" parent="1" source="RYWF6PPCwVBztijRkfeJ-128" target="RYWF6PPCwVBztijRkfeJ-77" edge="1">
          <mxGeometry relative="1" as="geometry">
            <Array as="points">
              <mxPoint x="520" y="2035" />
              <mxPoint x="520" y="1720" />
              <mxPoint x="590" y="1720" />
              <mxPoint x="590" y="1395" />
            </Array>
          </mxGeometry>
        </mxCell>
        <mxCell id="RYWF6PPCwVBztijRkfeJ-128" value="Output&lt;div&gt;List Pendaftar&lt;/div&gt;" style="shape=parallelogram;perimeter=parallelogramPerimeter;whiteSpace=wrap;html=1;fixedSize=1;" parent="1" vertex="1">
          <mxGeometry x="603" y="2005" width="120" height="60" as="geometry" />
        </mxCell>
        <mxCell id="RYWF6PPCwVBztijRkfeJ-129" value="" style="edgeStyle=orthogonalEdgeStyle;rounded=0;orthogonalLoop=1;jettySize=auto;html=1;" parent="1" source="RYWF6PPCwVBztijRkfeJ-130" target="RYWF6PPCwVBztijRkfeJ-131" edge="1">
          <mxGeometry relative="1" as="geometry" />
        </mxCell>
        <mxCell id="RYWF6PPCwVBztijRkfeJ-189" value="no" style="edgeLabel;html=1;align=center;verticalAlign=middle;resizable=0;points=[];" parent="RYWF6PPCwVBztijRkfeJ-129" vertex="1" connectable="0">
          <mxGeometry x="0.0462" y="-3" relative="1" as="geometry">
            <mxPoint as="offset" />
          </mxGeometry>
        </mxCell>
        <mxCell id="RYWF6PPCwVBztijRkfeJ-130" value="Ada&lt;div&gt;Pendaftar ?&lt;/div&gt;" style="strokeWidth=2;html=1;shape=mxgraph.flowchart.decision;whiteSpace=wrap;" parent="1" vertex="1">
          <mxGeometry x="663" y="1835" width="105" height="100" as="geometry" />
        </mxCell>
        <mxCell id="RYWF6PPCwVBztijRkfeJ-254" style="edgeStyle=orthogonalEdgeStyle;rounded=0;orthogonalLoop=1;jettySize=auto;html=1;" parent="1" source="RYWF6PPCwVBztijRkfeJ-131" edge="1">
          <mxGeometry relative="1" as="geometry">
            <mxPoint x="520" y="2026" as="targetPoint" />
            <mxPoint x="798" y="2091" as="sourcePoint" />
            <Array as="points">
              <mxPoint x="798" y="2116" />
              <mxPoint x="520" y="2116" />
            </Array>
          </mxGeometry>
        </mxCell>
        <mxCell id="RYWF6PPCwVBztijRkfeJ-131" value="Output&lt;div&gt;belum ada pendaftar&lt;/div&gt;" style="shape=parallelogram;perimeter=parallelogramPerimeter;whiteSpace=wrap;html=1;fixedSize=1;strokeWidth=2;" parent="1" vertex="1">
          <mxGeometry x="723" y="2005" width="150" height="70" as="geometry" />
        </mxCell>
        <mxCell id="RYWF6PPCwVBztijRkfeJ-136" value="" style="edgeStyle=orthogonalEdgeStyle;rounded=0;orthogonalLoop=1;jettySize=auto;html=1;" parent="1" source="RYWF6PPCwVBztijRkfeJ-132" target="RYWF6PPCwVBztijRkfeJ-135" edge="1">
          <mxGeometry relative="1" as="geometry" />
        </mxCell>
        <mxCell id="RYWF6PPCwVBztijRkfeJ-137" value="yes" style="edgeLabel;html=1;align=center;verticalAlign=middle;resizable=0;points=[];" parent="RYWF6PPCwVBztijRkfeJ-136" vertex="1" connectable="0">
          <mxGeometry x="-0.2303" y="1" relative="1" as="geometry">
            <mxPoint as="offset" />
          </mxGeometry>
        </mxCell>
        <mxCell id="RYWF6PPCwVBztijRkfeJ-139" value="" style="edgeStyle=orthogonalEdgeStyle;rounded=0;orthogonalLoop=1;jettySize=auto;html=1;" parent="1" source="RYWF6PPCwVBztijRkfeJ-132" target="RYWF6PPCwVBztijRkfeJ-138" edge="1">
          <mxGeometry relative="1" as="geometry" />
        </mxCell>
        <mxCell id="RYWF6PPCwVBztijRkfeJ-140" value="no" style="edgeLabel;html=1;align=center;verticalAlign=middle;resizable=0;points=[];" parent="RYWF6PPCwVBztijRkfeJ-139" vertex="1" connectable="0">
          <mxGeometry x="-0.2654" y="1" relative="1" as="geometry">
            <mxPoint as="offset" />
          </mxGeometry>
        </mxCell>
        <mxCell id="RYWF6PPCwVBztijRkfeJ-132" value="usia &amp;gt;= 17 th&lt;div&gt;rank epic keatas&lt;/div&gt;" style="rhombus;whiteSpace=wrap;html=1;" parent="1" vertex="1">
          <mxGeometry x="-172.5" y="1750" width="135" height="110" as="geometry" />
        </mxCell>
        <mxCell id="RYWF6PPCwVBztijRkfeJ-271" style="edgeStyle=orthogonalEdgeStyle;rounded=0;orthogonalLoop=1;jettySize=auto;html=1;" parent="1" source="RYWF6PPCwVBztijRkfeJ-135" edge="1">
          <mxGeometry relative="1" as="geometry">
            <mxPoint x="-360" y="1805" as="targetPoint" />
          </mxGeometry>
        </mxCell>
        <mxCell id="RYWF6PPCwVBztijRkfeJ-135" value="Pendaftaran Berhasil&lt;div&gt;Tambah Pendaftar&lt;/div&gt;" style="whiteSpace=wrap;html=1;" parent="1" vertex="1">
          <mxGeometry x="-340" y="1775" width="120" height="60" as="geometry" />
        </mxCell>
        <mxCell id="RYWF6PPCwVBztijRkfeJ-272" style="edgeStyle=orthogonalEdgeStyle;rounded=0;orthogonalLoop=1;jettySize=auto;html=1;" parent="1" source="RYWF6PPCwVBztijRkfeJ-138" edge="1">
          <mxGeometry relative="1" as="geometry">
            <mxPoint x="-105" y="2060" as="targetPoint" />
          </mxGeometry>
        </mxCell>
        <mxCell id="RYWF6PPCwVBztijRkfeJ-138" value="Output&amp;nbsp;&lt;div&gt;usia dibawah 17 th&lt;/div&gt;&lt;div&gt;dan rank under epic&lt;/div&gt;&lt;div&gt;tidak boleh mendaftar&lt;/div&gt;" style="shape=parallelogram;perimeter=parallelogramPerimeter;whiteSpace=wrap;html=1;fixedSize=1;" parent="1" vertex="1">
          <mxGeometry x="-190" y="1930" width="170" height="80" as="geometry" />
        </mxCell>
        <mxCell id="RYWF6PPCwVBztijRkfeJ-144" value="" style="edgeStyle=orthogonalEdgeStyle;rounded=0;orthogonalLoop=1;jettySize=auto;html=1;" parent="1" source="RYWF6PPCwVBztijRkfeJ-141" target="RYWF6PPCwVBztijRkfeJ-143" edge="1">
          <mxGeometry relative="1" as="geometry" />
        </mxCell>
        <mxCell id="RYWF6PPCwVBztijRkfeJ-151" value="yes" style="edgeLabel;html=1;align=center;verticalAlign=middle;resizable=0;points=[];" parent="RYWF6PPCwVBztijRkfeJ-144" vertex="1" connectable="0">
          <mxGeometry x="-0.0677" y="2" relative="1" as="geometry">
            <mxPoint as="offset" />
          </mxGeometry>
        </mxCell>
        <mxCell id="RYWF6PPCwVBztijRkfeJ-146" value="" style="edgeStyle=orthogonalEdgeStyle;rounded=0;orthogonalLoop=1;jettySize=auto;html=1;" parent="1" source="RYWF6PPCwVBztijRkfeJ-141" target="RYWF6PPCwVBztijRkfeJ-145" edge="1">
          <mxGeometry relative="1" as="geometry" />
        </mxCell>
        <mxCell id="RYWF6PPCwVBztijRkfeJ-152" value="no" style="edgeLabel;html=1;align=center;verticalAlign=middle;resizable=0;points=[];" parent="RYWF6PPCwVBztijRkfeJ-146" vertex="1" connectable="0">
          <mxGeometry x="0.1926" y="-4" relative="1" as="geometry">
            <mxPoint as="offset" />
          </mxGeometry>
        </mxCell>
        <mxCell id="RYWF6PPCwVBztijRkfeJ-141" value="Sudah Mendaftar?&lt;div&gt;Berhasil?&lt;/div&gt;" style="rhombus;whiteSpace=wrap;html=1;" parent="1" vertex="1">
          <mxGeometry x="10" y="1640" width="130" height="90" as="geometry" />
        </mxCell>
        <mxCell id="RYWF6PPCwVBztijRkfeJ-156" style="edgeStyle=orthogonalEdgeStyle;rounded=0;orthogonalLoop=1;jettySize=auto;html=1;" parent="1" source="RYWF6PPCwVBztijRkfeJ-143" edge="1">
          <mxGeometry relative="1" as="geometry">
            <mxPoint x="75" y="2060" as="targetPoint" />
          </mxGeometry>
        </mxCell>
        <mxCell id="RYWF6PPCwVBztijRkfeJ-143" value="Output&lt;div&gt;Anda Telah Mendaftar&lt;/div&gt;" style="shape=parallelogram;perimeter=parallelogramPerimeter;whiteSpace=wrap;html=1;fixedSize=1;" parent="1" vertex="1">
          <mxGeometry x="2.5" y="1800" width="145" height="75" as="geometry" />
        </mxCell>
        <mxCell id="RYWF6PPCwVBztijRkfeJ-155" style="edgeStyle=orthogonalEdgeStyle;rounded=0;orthogonalLoop=1;jettySize=auto;html=1;entryX=0;entryY=0.5;entryDx=0;entryDy=0;" parent="1" source="RYWF6PPCwVBztijRkfeJ-145" target="RYWF6PPCwVBztijRkfeJ-62" edge="1">
          <mxGeometry relative="1" as="geometry">
            <mxPoint x="220" y="1260" as="targetPoint" />
            <Array as="points">
              <mxPoint x="220" y="2060" />
              <mxPoint x="-360" y="2060" />
              <mxPoint x="-360" y="1260" />
            </Array>
          </mxGeometry>
        </mxCell>
        <mxCell id="RYWF6PPCwVBztijRkfeJ-145" value="Output&lt;div&gt;Anda Belum Terdaftar&lt;/div&gt;" style="shape=parallelogram;perimeter=parallelogramPerimeter;whiteSpace=wrap;html=1;fixedSize=1;" parent="1" vertex="1">
          <mxGeometry x="150" y="1805" width="140" height="70" as="geometry" />
        </mxCell>
        <mxCell id="RYWF6PPCwVBztijRkfeJ-160" style="edgeStyle=orthogonalEdgeStyle;rounded=0;orthogonalLoop=1;jettySize=auto;html=1;entryX=1;entryY=0.5;entryDx=0;entryDy=0;" parent="1" source="RYWF6PPCwVBztijRkfeJ-158" target="RYWF6PPCwVBztijRkfeJ-62" edge="1">
          <mxGeometry relative="1" as="geometry">
            <Array as="points">
              <mxPoint x="500" y="1260" />
            </Array>
          </mxGeometry>
        </mxCell>
        <mxCell id="RYWF6PPCwVBztijRkfeJ-158" value="Output&lt;div&gt;Input Tidak Valid&lt;/div&gt;" style="shape=parallelogram;perimeter=parallelogramPerimeter;whiteSpace=wrap;html=1;fixedSize=1;" parent="1" vertex="1">
          <mxGeometry x="440" y="1490" width="120" height="60" as="geometry" />
        </mxCell>
        <mxCell id="RYWF6PPCwVBztijRkfeJ-165" value="" style="edgeStyle=orthogonalEdgeStyle;rounded=0;orthogonalLoop=1;jettySize=auto;html=1;" parent="1" source="RYWF6PPCwVBztijRkfeJ-162" target="RYWF6PPCwVBztijRkfeJ-164" edge="1">
          <mxGeometry relative="1" as="geometry" />
        </mxCell>
        <mxCell id="RYWF6PPCwVBztijRkfeJ-245" value="no" style="edgeLabel;html=1;align=center;verticalAlign=middle;resizable=0;points=[];" parent="RYWF6PPCwVBztijRkfeJ-165" vertex="1" connectable="0">
          <mxGeometry x="-0.4564" y="-1" relative="1" as="geometry">
            <mxPoint x="-1" as="offset" />
          </mxGeometry>
        </mxCell>
        <mxCell id="RYWF6PPCwVBztijRkfeJ-173" value="" style="edgeStyle=orthogonalEdgeStyle;rounded=0;orthogonalLoop=1;jettySize=auto;html=1;" parent="1" source="RYWF6PPCwVBztijRkfeJ-162" target="RYWF6PPCwVBztijRkfeJ-130" edge="1">
          <mxGeometry relative="1" as="geometry" />
        </mxCell>
        <mxCell id="RYWF6PPCwVBztijRkfeJ-244" value="yes" style="edgeLabel;html=1;align=center;verticalAlign=middle;resizable=0;points=[];" parent="RYWF6PPCwVBztijRkfeJ-173" vertex="1" connectable="0">
          <mxGeometry x="-0.281" relative="1" as="geometry">
            <mxPoint y="2" as="offset" />
          </mxGeometry>
        </mxCell>
        <mxCell id="RYWF6PPCwVBztijRkfeJ-162" value="admin_choice = 1" style="rhombus;whiteSpace=wrap;html=1;" parent="1" vertex="1">
          <mxGeometry x="650" y="1705" width="130" height="100" as="geometry" />
        </mxCell>
        <mxCell id="RYWF6PPCwVBztijRkfeJ-167" value="" style="edgeStyle=orthogonalEdgeStyle;rounded=0;orthogonalLoop=1;jettySize=auto;html=1;" parent="1" source="RYWF6PPCwVBztijRkfeJ-164" target="RYWF6PPCwVBztijRkfeJ-166" edge="1">
          <mxGeometry relative="1" as="geometry" />
        </mxCell>
        <mxCell id="RYWF6PPCwVBztijRkfeJ-247" value="no" style="edgeLabel;html=1;align=center;verticalAlign=middle;resizable=0;points=[];" parent="RYWF6PPCwVBztijRkfeJ-167" vertex="1" connectable="0">
          <mxGeometry x="0.1441" y="-2" relative="1" as="geometry">
            <mxPoint as="offset" />
          </mxGeometry>
        </mxCell>
        <mxCell id="RYWF6PPCwVBztijRkfeJ-205" value="" style="edgeStyle=orthogonalEdgeStyle;rounded=0;orthogonalLoop=1;jettySize=auto;html=1;" parent="1" source="RYWF6PPCwVBztijRkfeJ-164" target="RYWF6PPCwVBztijRkfeJ-197" edge="1">
          <mxGeometry relative="1" as="geometry" />
        </mxCell>
        <mxCell id="RYWF6PPCwVBztijRkfeJ-246" value="yes" style="edgeLabel;html=1;align=center;verticalAlign=middle;resizable=0;points=[];" parent="RYWF6PPCwVBztijRkfeJ-205" vertex="1" connectable="0">
          <mxGeometry x="0.1467" y="-2" relative="1" as="geometry">
            <mxPoint y="-1" as="offset" />
          </mxGeometry>
        </mxCell>
        <mxCell id="RYWF6PPCwVBztijRkfeJ-164" value="admin_choice = 2" style="rhombus;whiteSpace=wrap;html=1;" parent="1" vertex="1">
          <mxGeometry x="910" y="1705" width="130" height="100" as="geometry" />
        </mxCell>
        <mxCell id="RYWF6PPCwVBztijRkfeJ-169" value="" style="edgeStyle=orthogonalEdgeStyle;rounded=0;orthogonalLoop=1;jettySize=auto;html=1;" parent="1" source="RYWF6PPCwVBztijRkfeJ-166" target="RYWF6PPCwVBztijRkfeJ-168" edge="1">
          <mxGeometry relative="1" as="geometry" />
        </mxCell>
        <mxCell id="RYWF6PPCwVBztijRkfeJ-249" value="no" style="edgeLabel;html=1;align=center;verticalAlign=middle;resizable=0;points=[];" parent="RYWF6PPCwVBztijRkfeJ-169" vertex="1" connectable="0">
          <mxGeometry x="-0.1583" relative="1" as="geometry">
            <mxPoint x="1" as="offset" />
          </mxGeometry>
        </mxCell>
        <mxCell id="RYWF6PPCwVBztijRkfeJ-216" value="" style="edgeStyle=orthogonalEdgeStyle;rounded=0;orthogonalLoop=1;jettySize=auto;html=1;" parent="1" source="RYWF6PPCwVBztijRkfeJ-166" target="RYWF6PPCwVBztijRkfeJ-215" edge="1">
          <mxGeometry relative="1" as="geometry" />
        </mxCell>
        <mxCell id="RYWF6PPCwVBztijRkfeJ-248" value="yes" style="edgeLabel;html=1;align=center;verticalAlign=middle;resizable=0;points=[];" parent="RYWF6PPCwVBztijRkfeJ-216" vertex="1" connectable="0">
          <mxGeometry x="0.1" y="2" relative="1" as="geometry">
            <mxPoint as="offset" />
          </mxGeometry>
        </mxCell>
        <mxCell id="RYWF6PPCwVBztijRkfeJ-166" value="admin_choice = 3" style="rhombus;whiteSpace=wrap;html=1;" parent="1" vertex="1">
          <mxGeometry x="1112.5" y="1710" width="130" height="100" as="geometry" />
        </mxCell>
        <mxCell id="RYWF6PPCwVBztijRkfeJ-171" value="" style="edgeStyle=orthogonalEdgeStyle;rounded=0;orthogonalLoop=1;jettySize=auto;html=1;" parent="1" source="RYWF6PPCwVBztijRkfeJ-168" target="RYWF6PPCwVBztijRkfeJ-170" edge="1">
          <mxGeometry relative="1" as="geometry" />
        </mxCell>
        <mxCell id="RYWF6PPCwVBztijRkfeJ-251" value="no" style="edgeLabel;html=1;align=center;verticalAlign=middle;resizable=0;points=[];" parent="RYWF6PPCwVBztijRkfeJ-171" vertex="1" connectable="0">
          <mxGeometry x="-0.2792" y="-6" relative="1" as="geometry">
            <mxPoint x="1" as="offset" />
          </mxGeometry>
        </mxCell>
        <mxCell id="RYWF6PPCwVBztijRkfeJ-233" value="" style="edgeStyle=orthogonalEdgeStyle;rounded=0;orthogonalLoop=1;jettySize=auto;html=1;" parent="1" source="RYWF6PPCwVBztijRkfeJ-168" target="RYWF6PPCwVBztijRkfeJ-232" edge="1">
          <mxGeometry relative="1" as="geometry" />
        </mxCell>
        <mxCell id="RYWF6PPCwVBztijRkfeJ-250" value="yes" style="edgeLabel;html=1;align=center;verticalAlign=middle;resizable=0;points=[];" parent="RYWF6PPCwVBztijRkfeJ-233" vertex="1" connectable="0">
          <mxGeometry x="-0.2" y="-2" relative="1" as="geometry">
            <mxPoint as="offset" />
          </mxGeometry>
        </mxCell>
        <mxCell id="RYWF6PPCwVBztijRkfeJ-168" value="admin_choice = 4" style="rhombus;whiteSpace=wrap;html=1;" parent="1" vertex="1">
          <mxGeometry x="1340" y="1710" width="130" height="100" as="geometry" />
        </mxCell>
        <mxCell id="RYWF6PPCwVBztijRkfeJ-240" style="edgeStyle=orthogonalEdgeStyle;rounded=0;orthogonalLoop=1;jettySize=auto;html=1;exitX=0.615;exitY=0.192;exitDx=0;exitDy=0;exitPerimeter=0;" parent="1" source="RYWF6PPCwVBztijRkfeJ-170" edge="1">
          <mxGeometry relative="1" as="geometry">
            <mxPoint x="1010" y="380" as="targetPoint" />
            <mxPoint x="1350" y="1690" as="sourcePoint" />
            <Array as="points">
              <mxPoint x="1595" y="1729" />
              <mxPoint x="1595" y="380" />
            </Array>
          </mxGeometry>
        </mxCell>
        <mxCell id="RYWF6PPCwVBztijRkfeJ-170" value="admin_choice = 5" style="rhombus;whiteSpace=wrap;html=1;" parent="1" vertex="1">
          <mxGeometry x="1530" y="1710" width="130" height="100" as="geometry" />
        </mxCell>
        <mxCell id="RYWF6PPCwVBztijRkfeJ-196" value="" style="edgeStyle=orthogonalEdgeStyle;rounded=0;orthogonalLoop=1;jettySize=auto;html=1;" parent="1" source="RYWF6PPCwVBztijRkfeJ-197" target="RYWF6PPCwVBztijRkfeJ-202" edge="1">
          <mxGeometry relative="1" as="geometry" />
        </mxCell>
        <mxCell id="RYWF6PPCwVBztijRkfeJ-197" value="Input nama&lt;div&gt;input usia&lt;/div&gt;&lt;div&gt;input rank&amp;nbsp;&lt;/div&gt;" style="shape=parallelogram;perimeter=parallelogramPerimeter;whiteSpace=wrap;html=1;fixedSize=1;" parent="1" vertex="1">
          <mxGeometry x="915" y="1880" width="120" height="60" as="geometry" />
        </mxCell>
        <mxCell id="RYWF6PPCwVBztijRkfeJ-198" value="" style="edgeStyle=orthogonalEdgeStyle;rounded=0;orthogonalLoop=1;jettySize=auto;html=1;" parent="1" source="RYWF6PPCwVBztijRkfeJ-202" target="RYWF6PPCwVBztijRkfeJ-203" edge="1">
          <mxGeometry relative="1" as="geometry" />
        </mxCell>
        <mxCell id="RYWF6PPCwVBztijRkfeJ-199" value="yes" style="edgeLabel;html=1;align=center;verticalAlign=middle;resizable=0;points=[];" parent="RYWF6PPCwVBztijRkfeJ-198" vertex="1" connectable="0">
          <mxGeometry x="-0.2303" y="1" relative="1" as="geometry">
            <mxPoint as="offset" />
          </mxGeometry>
        </mxCell>
        <mxCell id="RYWF6PPCwVBztijRkfeJ-200" value="" style="edgeStyle=orthogonalEdgeStyle;rounded=0;orthogonalLoop=1;jettySize=auto;html=1;" parent="1" source="RYWF6PPCwVBztijRkfeJ-202" target="RYWF6PPCwVBztijRkfeJ-204" edge="1">
          <mxGeometry relative="1" as="geometry">
            <Array as="points">
              <mxPoint x="975" y="2120" />
              <mxPoint x="1016" y="2120" />
            </Array>
          </mxGeometry>
        </mxCell>
        <mxCell id="RYWF6PPCwVBztijRkfeJ-201" value="no" style="edgeLabel;html=1;align=center;verticalAlign=middle;resizable=0;points=[];" parent="RYWF6PPCwVBztijRkfeJ-200" vertex="1" connectable="0">
          <mxGeometry x="-0.2654" y="1" relative="1" as="geometry">
            <mxPoint as="offset" />
          </mxGeometry>
        </mxCell>
        <mxCell id="RYWF6PPCwVBztijRkfeJ-202" value="usia &amp;gt;= 17 th&lt;div&gt;rank epic keatas&lt;/div&gt;" style="rhombus;whiteSpace=wrap;html=1;" parent="1" vertex="1">
          <mxGeometry x="907.5" y="1980" width="135" height="110" as="geometry" />
        </mxCell>
        <mxCell id="RYWF6PPCwVBztijRkfeJ-203" value="Pendaftaran Berhasil&lt;div&gt;Tambah Pendaftar&lt;/div&gt;" style="whiteSpace=wrap;html=1;" parent="1" vertex="1">
          <mxGeometry x="800" y="2180" width="120" height="60" as="geometry" />
        </mxCell>
        <mxCell id="RYWF6PPCwVBztijRkfeJ-257" style="edgeStyle=orthogonalEdgeStyle;rounded=0;orthogonalLoop=1;jettySize=auto;html=1;" parent="1" source="RYWF6PPCwVBztijRkfeJ-204" edge="1">
          <mxGeometry relative="1" as="geometry">
            <mxPoint x="520" y="2280" as="targetPoint" />
            <Array as="points">
              <mxPoint x="1020" y="2380" />
              <mxPoint x="520" y="2380" />
            </Array>
          </mxGeometry>
        </mxCell>
        <mxCell id="RYWF6PPCwVBztijRkfeJ-204" value="Output&amp;nbsp;&lt;div&gt;usia dibawah 17 th&lt;/div&gt;&lt;div&gt;dan rank under epic&lt;/div&gt;&lt;div&gt;tidak boleh mendaftar&lt;/div&gt;" style="shape=parallelogram;perimeter=parallelogramPerimeter;whiteSpace=wrap;html=1;fixedSize=1;" parent="1" vertex="1">
          <mxGeometry x="935" y="2210" width="170" height="80" as="geometry" />
        </mxCell>
        <mxCell id="RYWF6PPCwVBztijRkfeJ-213" style="edgeStyle=orthogonalEdgeStyle;rounded=0;orthogonalLoop=1;jettySize=auto;html=1;entryX=0.5;entryY=1;entryDx=0;entryDy=0;entryPerimeter=0;" parent="1" source="RYWF6PPCwVBztijRkfeJ-128" target="RYWF6PPCwVBztijRkfeJ-130" edge="1">
          <mxGeometry relative="1" as="geometry" />
        </mxCell>
        <mxCell id="RYWF6PPCwVBztijRkfeJ-214" value="yes" style="edgeLabel;html=1;align=center;verticalAlign=middle;resizable=0;points=[];" parent="RYWF6PPCwVBztijRkfeJ-213" vertex="1" connectable="0">
          <mxGeometry x="-0.0349" y="1" relative="1" as="geometry">
            <mxPoint x="1" as="offset" />
          </mxGeometry>
        </mxCell>
        <mxCell id="RYWF6PPCwVBztijRkfeJ-220" value="" style="edgeStyle=orthogonalEdgeStyle;rounded=0;orthogonalLoop=1;jettySize=auto;html=1;" parent="1" source="RYWF6PPCwVBztijRkfeJ-215" target="RYWF6PPCwVBztijRkfeJ-219" edge="1">
          <mxGeometry relative="1" as="geometry" />
        </mxCell>
        <mxCell id="RYWF6PPCwVBztijRkfeJ-215" value="Output&lt;div&gt;List Pendaftar,&lt;/div&gt;&lt;div&gt;Pilih player yang ingin diubah :&lt;/div&gt;" style="shape=parallelogram;perimeter=parallelogramPerimeter;whiteSpace=wrap;html=1;fixedSize=1;" parent="1" vertex="1">
          <mxGeometry x="1100" y="1850" width="155" height="100" as="geometry" />
        </mxCell>
        <mxCell id="RYWF6PPCwVBztijRkfeJ-222" value="" style="edgeStyle=orthogonalEdgeStyle;rounded=0;orthogonalLoop=1;jettySize=auto;html=1;" parent="1" source="RYWF6PPCwVBztijRkfeJ-219" target="RYWF6PPCwVBztijRkfeJ-221" edge="1">
          <mxGeometry relative="1" as="geometry" />
        </mxCell>
        <mxCell id="RYWF6PPCwVBztijRkfeJ-219" value="input player_pilihan" style="shape=parallelogram;perimeter=parallelogramPerimeter;whiteSpace=wrap;html=1;fixedSize=1;" parent="1" vertex="1">
          <mxGeometry x="1105" y="2025" width="145" height="75" as="geometry" />
        </mxCell>
        <mxCell id="RYWF6PPCwVBztijRkfeJ-231" value="" style="edgeStyle=orthogonalEdgeStyle;rounded=0;orthogonalLoop=1;jettySize=auto;html=1;" parent="1" source="RYWF6PPCwVBztijRkfeJ-221" target="RYWF6PPCwVBztijRkfeJ-228" edge="1">
          <mxGeometry relative="1" as="geometry" />
        </mxCell>
        <mxCell id="RYWF6PPCwVBztijRkfeJ-221" value="input nama baru&lt;div&gt;usia baru&amp;nbsp;&lt;/div&gt;&lt;div&gt;rank baru&lt;/div&gt;" style="shape=parallelogram;perimeter=parallelogramPerimeter;whiteSpace=wrap;html=1;fixedSize=1;" parent="1" vertex="1">
          <mxGeometry x="1105" y="2180" width="145" height="75" as="geometry" />
        </mxCell>
        <mxCell id="RYWF6PPCwVBztijRkfeJ-224" value="" style="edgeStyle=orthogonalEdgeStyle;rounded=0;orthogonalLoop=1;jettySize=auto;html=1;" parent="1" source="RYWF6PPCwVBztijRkfeJ-228" target="RYWF6PPCwVBztijRkfeJ-229" edge="1">
          <mxGeometry relative="1" as="geometry" />
        </mxCell>
        <mxCell id="RYWF6PPCwVBztijRkfeJ-225" value="yes" style="edgeLabel;html=1;align=center;verticalAlign=middle;resizable=0;points=[];" parent="RYWF6PPCwVBztijRkfeJ-224" vertex="1" connectable="0">
          <mxGeometry x="-0.2303" y="1" relative="1" as="geometry">
            <mxPoint as="offset" />
          </mxGeometry>
        </mxCell>
        <mxCell id="RYWF6PPCwVBztijRkfeJ-226" value="" style="edgeStyle=orthogonalEdgeStyle;rounded=0;orthogonalLoop=1;jettySize=auto;html=1;" parent="1" source="RYWF6PPCwVBztijRkfeJ-228" target="RYWF6PPCwVBztijRkfeJ-230" edge="1">
          <mxGeometry relative="1" as="geometry">
            <Array as="points">
              <mxPoint x="1180.5" y="2440" />
              <mxPoint x="1268.5" y="2440" />
            </Array>
          </mxGeometry>
        </mxCell>
        <mxCell id="RYWF6PPCwVBztijRkfeJ-227" value="no" style="edgeLabel;html=1;align=center;verticalAlign=middle;resizable=0;points=[];" parent="RYWF6PPCwVBztijRkfeJ-226" vertex="1" connectable="0">
          <mxGeometry x="-0.2654" y="1" relative="1" as="geometry">
            <mxPoint as="offset" />
          </mxGeometry>
        </mxCell>
        <mxCell id="RYWF6PPCwVBztijRkfeJ-228" value="usia &amp;gt;= 17 th&lt;div&gt;rank epic keatas&lt;/div&gt;" style="rhombus;whiteSpace=wrap;html=1;direction=south;" parent="1" vertex="1">
          <mxGeometry x="1125" y="2310" width="107.5" height="102.5" as="geometry" />
        </mxCell>
        <mxCell id="RYWF6PPCwVBztijRkfeJ-258" style="edgeStyle=orthogonalEdgeStyle;rounded=0;orthogonalLoop=1;jettySize=auto;html=1;" parent="1" source="RYWF6PPCwVBztijRkfeJ-229" edge="1">
          <mxGeometry relative="1" as="geometry">
            <mxPoint x="520" y="2380" as="targetPoint" />
          </mxGeometry>
        </mxCell>
        <mxCell id="RYWF6PPCwVBztijRkfeJ-229" value="Perubahan Berhasil&lt;div&gt;Ubah Pendaftar&lt;/div&gt;" style="whiteSpace=wrap;html=1;" parent="1" vertex="1">
          <mxGeometry x="1022.5" y="2460" width="120" height="60" as="geometry" />
        </mxCell>
        <mxCell id="RYWF6PPCwVBztijRkfeJ-259" style="edgeStyle=orthogonalEdgeStyle;rounded=0;orthogonalLoop=1;jettySize=auto;html=1;" parent="1" source="RYWF6PPCwVBztijRkfeJ-230" edge="1">
          <mxGeometry relative="1" as="geometry">
            <mxPoint x="520" y="2490" as="targetPoint" />
            <Array as="points">
              <mxPoint x="1270" y="2580" />
              <mxPoint x="520" y="2580" />
            </Array>
          </mxGeometry>
        </mxCell>
        <mxCell id="RYWF6PPCwVBztijRkfeJ-230" value="Output&amp;nbsp;&lt;div&gt;usia dibawah 17 th&lt;/div&gt;&lt;div&gt;dan rank under epic&lt;/div&gt;&lt;div&gt;tidak boleh mendaftar&lt;/div&gt;" style="shape=parallelogram;perimeter=parallelogramPerimeter;whiteSpace=wrap;html=1;fixedSize=1;" parent="1" vertex="1">
          <mxGeometry x="1185" y="2460" width="170" height="80" as="geometry" />
        </mxCell>
        <mxCell id="RYWF6PPCwVBztijRkfeJ-236" value="" style="edgeStyle=orthogonalEdgeStyle;rounded=0;orthogonalLoop=1;jettySize=auto;html=1;" parent="1" source="RYWF6PPCwVBztijRkfeJ-232" target="RYWF6PPCwVBztijRkfeJ-235" edge="1">
          <mxGeometry relative="1" as="geometry" />
        </mxCell>
        <mxCell id="RYWF6PPCwVBztijRkfeJ-232" value="Output&lt;div&gt;List Pendaftar,&lt;/div&gt;&lt;div&gt;Pilih player yang ingin dihapus:&lt;/div&gt;" style="shape=parallelogram;perimeter=parallelogramPerimeter;whiteSpace=wrap;html=1;fixedSize=1;" parent="1" vertex="1">
          <mxGeometry x="1327.5" y="1850" width="155" height="100" as="geometry" />
        </mxCell>
        <mxCell id="RYWF6PPCwVBztijRkfeJ-238" value="" style="edgeStyle=orthogonalEdgeStyle;rounded=0;orthogonalLoop=1;jettySize=auto;html=1;" parent="1" source="RYWF6PPCwVBztijRkfeJ-235" target="RYWF6PPCwVBztijRkfeJ-237" edge="1">
          <mxGeometry relative="1" as="geometry" />
        </mxCell>
        <mxCell id="RYWF6PPCwVBztijRkfeJ-235" value="input player_pilihan" style="shape=parallelogram;perimeter=parallelogramPerimeter;whiteSpace=wrap;html=1;fixedSize=1;" parent="1" vertex="1">
          <mxGeometry x="1332.5" y="2015" width="145" height="75" as="geometry" />
        </mxCell>
        <mxCell id="RYWF6PPCwVBztijRkfeJ-260" style="edgeStyle=orthogonalEdgeStyle;rounded=0;orthogonalLoop=1;jettySize=auto;html=1;" parent="1" source="RYWF6PPCwVBztijRkfeJ-237" edge="1">
          <mxGeometry relative="1" as="geometry">
            <mxPoint x="1270" y="2580" as="targetPoint" />
            <Array as="points">
              <mxPoint x="1405" y="2580" />
            </Array>
          </mxGeometry>
        </mxCell>
        <mxCell id="RYWF6PPCwVBztijRkfeJ-237" value="Hapus Pendaftar" style="whiteSpace=wrap;html=1;" parent="1" vertex="1">
          <mxGeometry x="1345" y="2180" width="120" height="60" as="geometry" />
        </mxCell>
        <mxCell id="RYWF6PPCwVBztijRkfeJ-239" style="edgeStyle=orthogonalEdgeStyle;rounded=0;orthogonalLoop=1;jettySize=auto;html=1;exitX=0.5;exitY=1;exitDx=0;exitDy=0;" parent="1" source="RYWF6PPCwVBztijRkfeJ-235" target="RYWF6PPCwVBztijRkfeJ-235" edge="1">
          <mxGeometry relative="1" as="geometry" />
        </mxCell>
        <mxCell id="RYWF6PPCwVBztijRkfeJ-241" value="End" style="rounded=1;whiteSpace=wrap;html=1;" parent="1" vertex="1">
          <mxGeometry x="660" y="950" width="120" height="60" as="geometry" />
        </mxCell>
        <mxCell id="RYWF6PPCwVBztijRkfeJ-256" style="edgeStyle=orthogonalEdgeStyle;rounded=0;orthogonalLoop=1;jettySize=auto;html=1;" parent="1" edge="1">
          <mxGeometry relative="1" as="geometry">
            <mxPoint x="520" y="2110" as="targetPoint" />
            <mxPoint x="850" y="2239" as="sourcePoint" />
            <Array as="points">
              <mxPoint x="850" y="2280" />
              <mxPoint x="520" y="2280" />
              <mxPoint x="520" y="2120" />
            </Array>
          </mxGeometry>
        </mxCell>
        <mxCell id="bUcDFf3ubNVlGC_Wf3Vl-3" style="edgeStyle=orthogonalEdgeStyle;rounded=0;orthogonalLoop=1;jettySize=auto;html=1;entryX=0;entryY=0.5;entryDx=0;entryDy=0;" edge="1" parent="1" source="bUcDFf3ubNVlGC_Wf3Vl-1" target="RYWF6PPCwVBztijRkfeJ-41">
          <mxGeometry relative="1" as="geometry" />
        </mxCell>
        <mxCell id="bUcDFf3ubNVlGC_Wf3Vl-4" value="no" style="edgeLabel;html=1;align=center;verticalAlign=middle;resizable=0;points=[];" vertex="1" connectable="0" parent="bUcDFf3ubNVlGC_Wf3Vl-3">
          <mxGeometry x="-0.3576" y="-1" relative="1" as="geometry">
            <mxPoint y="-1" as="offset" />
          </mxGeometry>
        </mxCell>
        <mxCell id="bUcDFf3ubNVlGC_Wf3Vl-6" value="" style="edgeStyle=orthogonalEdgeStyle;rounded=0;orthogonalLoop=1;jettySize=auto;html=1;" edge="1" parent="1" source="bUcDFf3ubNVlGC_Wf3Vl-1" target="bUcDFf3ubNVlGC_Wf3Vl-5">
          <mxGeometry relative="1" as="geometry" />
        </mxCell>
        <mxCell id="bUcDFf3ubNVlGC_Wf3Vl-7" value="yes" style="edgeLabel;html=1;align=center;verticalAlign=middle;resizable=0;points=[];" vertex="1" connectable="0" parent="bUcDFf3ubNVlGC_Wf3Vl-6">
          <mxGeometry x="-0.1852" y="-5" relative="1" as="geometry">
            <mxPoint y="-1" as="offset" />
          </mxGeometry>
        </mxCell>
        <mxCell id="bUcDFf3ubNVlGC_Wf3Vl-1" value="Username sudah ada?" style="rhombus;whiteSpace=wrap;html=1;" vertex="1" parent="1">
          <mxGeometry x="50" y="710" width="80" height="80" as="geometry" />
        </mxCell>
        <mxCell id="bUcDFf3ubNVlGC_Wf3Vl-8" style="edgeStyle=orthogonalEdgeStyle;rounded=0;orthogonalLoop=1;jettySize=auto;html=1;" edge="1" parent="1" source="bUcDFf3ubNVlGC_Wf3Vl-5">
          <mxGeometry relative="1" as="geometry">
            <mxPoint x="90" y="380" as="targetPoint" />
          </mxGeometry>
        </mxCell>
        <mxCell id="bUcDFf3ubNVlGC_Wf3Vl-5" value="output&lt;div&gt;username sudah terdaftar&lt;/div&gt;" style="shape=parallelogram;perimeter=parallelogramPerimeter;whiteSpace=wrap;html=1;fixedSize=1;" vertex="1" parent="1">
          <mxGeometry x="30" y="560" width="120" height="60" as="geometry" />
        </mxCell>
      </root>
    </mxGraphModel>
  </diagram>
</mxfile>
